<svg xmlns="http://www.w3.org/2000/svg" viewBox="0 0 48 48" width="1000" height="1000">
    <path fill="#263238" d="M24 4C12.402 4 3 11.611 3 21c0 5.99 3.836 11.245 9.618 14.273l-2.219 7.397a.5.5 0 0 0 .756.56l8.422-5.615c1.427.248 2.905.385 4.423.385 11.598 0 21-7.611 21-17S35.598 4 24 4z"/>
    <path fill="#ffca28" d="M15 18H9a1 1 0 0 1 0-2h6a1 1 0 0 1 0 2zM25 26v-9a1 1 0 0 1 2 0v9a1 1 0 0 1-2 0zM32 26v-9a1 1 0 0 1 2 0v9a1 1 0 0 1-2 0z"/>
    <path fill="#ffca28" d="m32.621 21.207 4.914-4.914a.999.999 0 1 1 1.414 1.414l-4.914 4.914a1 1 0 0 1-1.414-1.414z"/>
    <path fill="#ffca28" d="m36.078 20.665 3.708 4.717a1 1 0 0 1-1.572 1.236l-3.708-4.717a1 1 0 0 1 1.572-1.236zM30 27h-4a1 1 0 0 1 0-2h4a1 1 0 0 1 0 2zM23.933 25.642l-3.221-9a.983.983 0 0 0-.878-.629c-.111-.005-.54-.003-.641-.001a.982.982 0 0 0-.906.63l-3.221 9a1 1 0 1 0 1.868.716L17.42 25h4.16l.486 1.358a1 1 0 0 0 1.867-.716zM18.136 23l1.364-3.812L20.864 23h-2.728zM13 18h-2v8a1 1 0 0 0 2 0v-8z"/>
</svg>
