<svg xmlns="http://www.w3.org/2000/svg" xml:space="preserve" width="1000" height="1007" shape-rendering="geometricPrecision" text-rendering="geometricPrecision" image-rendering="optimizeQuality" fill-rule="evenodd" clip-rule="evenodd" viewBox="0 0 2350.5 2363.04">
    <g fill="#47B14C" fill-rule="nonzero">
        <path d="m2272.72 305.47.34-.55L2039.25 89.4C1988.5 34.71 1916.35 0 1836 0H278.3C124.89 0 0 124.81 0 278.31V1996.2c0 47.78 8.79 83.33 26.6 108.64 6.27 8.89 13.65 16.38 21.97 22.42l223.59 206.03c3.56 3.76 7.25 7.19 11.16 10.22l1.9 1.86.28-.33c3.67 2.64 7.26 5.56 11.2 7.65 13.22 6.73 28.01 10.35 43.97 10.35 41.51 0 77.76-24.12 84.63-28.96l261.34-267.4c55.38-67.02 204.48-81.91 257.44-82.05h1128.18c153.41 0 278.24-124.84 278.24-278.27V496.37c0-74.37-29.83-141.23-77.78-190.9zm-251.37 5.41v1177.25c0 102.39-83.11 185.56-185.35 185.56H707.82c-24.03 0-235.97 3.25-326.54 112.89l-52.22 53.66-92.75 95.31-103.57 106.41c-7.85 4.64-20.27 10.14-28.38 10.14l-1.1.21c-.09-.11-10.52-10.07-10.52-56.09V278.31c0-102.36 83.17-185.56 185.56-185.56H1836c81.08 0 149.4 52.63 174.53 125.31 6.6 19.02 10.82 39.05 10.82 60.25v32.57z"/>
        <path d="M612.3 581.52c-76.69 0-138.61 62.1-138.61 138.65v291.19c0 76.58 61.92 138.62 138.61 138.62 76.5 0 138.64-62.04 138.64-138.62V720.17c0-76.55-62.14-138.65-138.64-138.65zM1475.86 581.52c-76.58 0-138.76 62.1-138.76 138.65v291.19c0 76.58 62.18 138.62 138.76 138.62 76.51 0 138.54-62.04 138.54-138.62V720.17c0-76.55-62.03-138.65-138.54-138.65z"/>
    </g>
</svg>
