<svg xmlns="http://www.w3.org/2000/svg" xml:space="preserve" width="299" height="296" shape-rendering="geometricPrecision" text-rendering="geometricPrecision" image-rendering="optimizeQuality" fill-rule="evenodd" clip-rule="evenodd" viewBox="0 0 135.74 134.47">
    <g fill-rule="nonzero">
        <path fill="#47B14C" d="M135.74 113c0 11.86-9.62 21.47-21.48 21.47H21.48C9.61 134.47 0 124.86 0 113V21.47C0 9.61 9.61 0 21.48 0h92.78c11.86 0 21.48 9.61 21.48 21.47V113z"/>
        <g fill="#FEFEFE">
            <path d="m107.3 40.6.01-.02-8.12-7.48c-1.76-1.9-4.26-3.11-7.06-3.11H38.04c-5.33 0-9.66 4.34-9.66 9.67v59.66c0 1.65.3 2.89.92 3.77.22.31.48.57.77.78l7.76 7.15c.12.13.25.25.39.36l.07.06v-.01c.13.09.25.19.39.26.46.24.98.36 1.53.36 1.44 0 2.7-.83 2.94-1l9.07-9.29c1.93-2.32 7.11-2.84 8.94-2.85h39.18c5.33 0 9.66-4.33 9.66-9.66V47.23c0-2.58-1.04-4.9-2.7-6.63zm-8.73.19v40.88c0 3.56-2.88 6.45-6.44 6.45H52.95c-.82 0-8.19.11-11.33 3.92l-1.81 1.86-3.22 3.31-3.6 3.69c-.27.16-.71.36-.99.36h-.04s-.36-.35-.36-1.94V39.66c0-3.55 2.89-6.44 6.44-6.44h54.09c2.82 0 5.19 1.83 6.07 4.35.22.66.37 1.35.37 2.09v1.13z"/>
            <path d="M49.64 50.19c-2.66 0-4.81 2.16-4.81 4.81v10.12c0 2.65 2.15 4.81 4.81 4.81 2.66 0 4.81-2.16 4.81-4.81V55c0-2.65-2.15-4.81-4.81-4.81zM79.63 50.19A4.82 4.82 0 0 0 74.81 55v10.12a4.82 4.82 0 0 0 4.82 4.81c2.66 0 4.81-2.16 4.81-4.81V55c0-2.65-2.15-4.81-4.81-4.81z"/>
        </g>
    </g>
</svg>
