<svg xmlns="http://www.w3.org/2000/svg" xml:space="preserve" width="1041" height="1038" version="1.0" shape-rendering="geometricPrecision" text-rendering="geometricPrecision" image-rendering="optimizeQuality" fill-rule="evenodd" clip-rule="evenodd" viewBox="0 0 86.73 86.47">
    <path fill="#1FAC43" fill-rule="nonzero" d="M86.73 71.44c-1.12 8.34-8.17 14.8-16.77 15.03H16.92C7.53 86.22 0 78.54 0 69.1V16.96C0 8.67 5.81 1.73 13.59 0H73.3c7.03 1.56 12.46 7.39 13.43 14.62v56.82z"/>
    <path fill="#FEFEFE" fill-rule="nonzero" d="M68.89 6.23h-50.9c-6.49 0-11.75 5.28-11.75 11.79V46c0 6.51 5.26 11.79 11.75 11.79h17.54l5.98 9.74s.06.12.19.28c.35.6 1 1.01 1.74 1.01s1.38-.41 1.73-1c.15-.18.21-.29.21-.29l5.98-9.74h17.53c6.49 0 11.75-5.28 11.75-11.79V18.02c0-6.51-5.26-11.79-11.75-11.79z"/>
    <g fill="#EE7827" fill-rule="nonzero">
        <path d="M22.77 26.73s-2.04 0-3.88 1.79V21.3h-4.55v18.97h4.6v-1.48s1.09 1.96 3.83 1.96c0 0 6.42-.24 6.42-7.08 0 0-.24-6.94-6.42-6.94zm-1.01 10.01c-1.61 0-2.93-1.31-2.93-2.93 0-1.61 1.32-2.92 2.93-2.92a2.926 2.926 0 1 1 0 5.85zM30.65 20.87v4.39s2.08-.09 2.08 3.78v11.23h4.39V28s.19-7.13-6.47-7.13zM47.85 26.79s-7.52 0-7.52 7.02c0 0-.25 6.94 7.52 6.94 0 0 7.7-.01 7.7-6.94 0 0 .25-7.02-7.7-7.02zm0 9.95a2.926 2.926 0 1 1 .011-5.851 2.926 2.926 0 0 1-.011 5.851zM68.12 27.25v1.27s-1.31-1.73-3.82-1.73c0 0-6.45-.28-6.45 6.98 0 0-.07 6.75 6.27 6.75 0 0 2.58.11 4-1.73v1.06s.32 3.33-2.9 3.33h-1.1v4.03h1.77s6.66.08 6.66-7.11V27.25h-4.43zm-2.72 9.49a2.926 2.926 0 1 1-.009-5.849 2.926 2.926 0 0 1 .009 5.849z"/>
    </g>
</svg>
