<svg xmlns="http://www.w3.org/2000/svg" xml:space="preserve" width="467" height="469" shape-rendering="geometricPrecision" text-rendering="geometricPrecision" image-rendering="optimizeQuality" fill-rule="evenodd" clip-rule="evenodd" viewBox="0 0 147.38 148.12">
    <path fill="#FEFEFE" fill-rule="nonzero" d="M66.69 32.66c15.34-5.53 33.58 6.45 34.39 22.72 1.72 13.57-8.94 26.69-22.31 28.58-13.56 2.34-27.66-7.8-29.94-21.34-2.67-12.65 5.62-26.15 17.86-29.96zM53.02 55.83c2.82.27 5.69.34 8.43 1.11 1.36 5.51-4.83 3.88-8.21 4.59 2.56 8.91 9.64 16.48 19.11 17.76-.09-2.69.1-5.34.59-7.97 5.82-1.98 4.01 4.58 4.5 8.06 9.35-1.53 16.73-8.9 18.87-18.02-2.98-.07-8.9.65-8.23-3.9 2.4-1.84 5.67-1.09 8.43-1.61-1.44-9.72-9.08-18.02-18.94-19.44-.11 2.55-.36 5.1-.76 7.64-5.38 2.59-4.25-4.56-4.75-7.7-9.97 1.49-17.21 9.85-19.04 19.48z"/>
    <path fill="#FEFEFE" fill-rule="nonzero" d="M71.81 51.75c5.05-3.22 11.93 2.82 9.53 8.26-1.43 4.76-8.25 5.74-11.47 2.27-2.67-3.15-1.95-8.69 1.94-10.53z"/>
    <path fill="#3C60AA" fill-rule="nonzero" d="M21.72.61c2.71-.55 5.48-.55 8.24-.6 30.12.09 60.25.05 90.37.01 12.07-.52 23.63 8.24 27.05 19.63v109.64c-2.9 9.3-11.16 16.92-20.73 18.83H21.82c-8.24-1.73-15.59-7.51-19.17-15.15-1.64-2.96-2.35-6.16-2.65-9.44V25.21C1.02 13.52 10.22 3.13 21.72.61zm14.92 47.52c-2.46 10.3-1.23 21.57 4.15 30.78 9.2 15.92 19.1 31.39 28.5 47.16 1.5 2.58 3.58 4.76 5.68 6.89 2.14-2.68 4.22-5.43 5.99-8.37 9.25-15.5 18.95-30.72 27.91-46.36 8.3-14.54 6.37-34.13-4.83-46.62-9.06-10.67-24.18-15.82-37.85-12.53-14.29 3.09-26.14 14.88-29.55 29.05z"/>
    <path fill="#91C541" fill-rule="nonzero" d="M36.64 48.13c3.41-14.17 15.26-25.96 29.55-29.05 13.67-3.29 28.79 1.86 37.85 12.53 11.2 12.49 13.13 32.08 4.83 46.62-8.96 15.64-18.66 30.86-27.91 46.36-1.77 2.94-3.85 5.69-5.99 8.37-2.1-2.13-4.18-4.31-5.68-6.89-9.4-15.77-19.3-31.24-28.5-47.16-5.38-9.21-6.61-20.48-4.15-30.78zm30.05-15.47c-12.24 3.81-20.53 17.31-17.86 29.96 2.28 13.54 16.38 23.68 29.94 21.34 13.37-1.89 24.03-15.01 22.31-28.58-.81-16.27-19.05-28.25-34.39-22.72z"/>
    <path fill="#91C541" fill-rule="nonzero" d="M53.02 55.83c1.83-9.63 9.07-17.99 19.04-19.48.5 3.14-.63 10.29 4.75 7.7.4-2.54.65-5.09.76-7.64 9.86 1.42 17.5 9.72 18.94 19.44-2.76.52-6.03-.23-8.43 1.61-.67 4.55 5.25 3.83 8.23 3.9-2.14 9.12-9.52 16.49-18.87 18.02-.49-3.48 1.32-10.04-4.5-8.06-.49 2.63-.68 5.28-.59 7.97-9.47-1.28-16.55-8.85-19.11-17.76 3.38-.71 9.57.92 8.21-4.59-2.74-.77-5.61-.84-8.43-1.11zm18.79-4.08c-3.89 1.84-4.61 7.38-1.94 10.53 3.22 3.47 10.04 2.49 11.47-2.27 2.4-5.44-4.48-11.48-9.53-8.26z"/>
</svg>
